# xmcd
# Copyright (C) 1995-1998 Ti Kan
#
# Track frame offsets:
#       150
#       16319
#       30754
#       49147
#       60960
#       74942
#       89919
#
# Disc length: 1423 seconds
#
# Revision: 0
# Processed by: cddbd v1.5.2PL0 Copyright (c) Steve Scherf et al.
# Submitted via: CD-Import v1.0
#
DISCID=5a058d07
DTITLE=The Strivers - Dirty Elegance
DYEAR=1900
DGENRE=
TTITLE0=Under Your Heels
TTITLE1=Sunday Monday
TTITLE2=Jeansfile
TTITLE3=Star
TTITLE4=Renegade
TTITLE5=Penetration
TTITLE6=Hungry On Your Side
EXTD=
EXTT0=
EXTT1=
EXTT2=
EXTT3=
EXTT4=
EXTT5=
EXTT6=
PLAYORDER=
